HIERARCHY
ROOT root
{
	OFFSET	0	13.1	24.9
	CHANNELS 6  Xposition Yposition Zposition Xrotation Yrotation Zrotation
	JOINT spine_1
	{
		OFFSET	0	9.99999	0
		CHANNELS 3  Xrotation Yrotation Zrotation
		JOINT spine_2
		{
			OFFSET	0	112	-10
			CHANNELS 3  Xrotation Yrotation Zrotation
			JOINT spine_3
			{
				OFFSET	0	206.5	19.3
				CHANNELS 3  Xrotation Yrotation Zrotation
				JOINT spine_4
				{
					OFFSET	0	110.4	14.6
					CHANNELS 3  Xrotation Yrotation Zrotation
					JOINT neck_1
					{
						OFFSET	0	71.8	-50.3
						CHANNELS 3  Xrotation Yrotation Zrotation
						JOINT neck_2
						{
							OFFSET	0	86.2	-25.8
							CHANNELS 3  Xrotation Yrotation Zrotation
							JOINT head_ee
							{
								OFFSET	0	179.8	-8.7
								CHANNELS 3  Xrotation Yrotation Zrotation
								End Site
								{
									OFFSET	1	0	0
								}
							}
						}
					}
					JOINT left_clavicle
					{
						OFFSET	-43.2	22.4	-70.8
						CHANNELS 3  Xrotation Yrotation Zrotation
						JOINT left_shoulder
						{
							OFFSET	-93.9	-5.79999	48.7
							CHANNELS 3  Xrotation Yrotation Zrotation
							JOINT left_elbow
							{
								OFFSET	-291.4	-30.8	15.2
								CHANNELS 3  Xrotation Yrotation Zrotation
								JOINT left_lowarm_twist
								{
									OFFSET	-110.7	-3.89999	13.6
									CHANNELS 3  Xrotation Yrotation Zrotation
									JOINT left_hand
									{
										OFFSET	-110.7	-3.89999	13.6
										CHANNELS 3  Xrotation Yrotation Zrotation
										JOINT left_ee
										{
											OFFSET	-80.8	-5.10001	12.1
											CHANNELS 3  Xrotation Yrotation Zrotation
											End Site
											{
												OFFSET	1	0	0
											}
										}
									}
								}
							}
						}
					}
					JOINT right_clavicle
					{
						OFFSET	43.2	22.4	-70.8
						CHANNELS 3  Xrotation Yrotation Zrotation
						JOINT right_shoulder
						{
							OFFSET	93.9	-5.79999	48.7
							CHANNELS 3  Xrotation Yrotation Zrotation
							JOINT right_elbow
							{
								OFFSET	291.4	-30.8	15.2
								CHANNELS 3  Xrotation Yrotation Zrotation
								JOINT right_lowarm_twist
								{
									OFFSET	110.7	-3.89999	13.6
									CHANNELS 3  Xrotation Yrotation Zrotation
									JOINT right_hand
									{
										OFFSET	110.7	-3.89999	13.6
										CHANNELS 3  Xrotation Yrotation Zrotation
										JOINT right_ee
										{
											OFFSET	80.8	-5.10001	12.1
											CHANNELS 3  Xrotation Yrotation Zrotation
											End Site
											{
												OFFSET	1	0	0
											}
										}
									}
								}
							}
						}
					}
				}
			}
		}
	}
	JOINT left_hip
	{
		OFFSET	-82.8	-127.5	0.300001
		CHANNELS 3  Xrotation Yrotation Zrotation
		JOINT left_knee
		{
			OFFSET	-28.2	-396.7	2.2
			CHANNELS 3  Xrotation Yrotation Zrotation
			JOINT left_ankle
			{
				OFFSET	-11.7	-411.3	35.4
				CHANNELS 3  Xrotation Yrotation Zrotation
				JOINT left_toes
				{
					OFFSET	0	-60	-88.6
					CHANNELS 3  Xrotation Yrotation Zrotation
					JOINT left_foot_ee
					{
						OFFSET	-22.5	-16.5	-42.2
						CHANNELS 3  Xrotation Yrotation Zrotation
						End Site
						{
							OFFSET	1	0	0
						}
					}
				}
			}
		}
	}
	JOINT right_hip
	{
		OFFSET	82.8	-127.5	0.300001
		CHANNELS 3  Xrotation Yrotation Zrotation
		JOINT right_knee
		{
			OFFSET	28.2	-396.7	2.2
			CHANNELS 3  Xrotation Yrotation Zrotation
			JOINT right_ankle
			{
				OFFSET	11.7	-411.3	35.4
				CHANNELS 3  Xrotation Yrotation Zrotation
				JOINT right_toes
				{
					OFFSET	0	-60	-88.6
					CHANNELS 3  Xrotation Yrotation Zrotation
					JOINT right_foot_ee
					{
						OFFSET	22.5	-16.5	-42.2
						CHANNELS 3  Xrotation Yrotation Zrotation
						End Site
						{
							OFFSET	1	0	0
						}
					}
				}
			}
		}
	}
}
MOTION
Frames: 14
Frame Time: 0.02
2135.56 723.199 -1485.83 -5.05379 73.2698 0.481278 0.475012 0.101336 0.566948 0.475189 0.0650552 0.572247 0.475913 -0.0519089 0.573589 0.475456 0.0393288 0.574589 -13.3077 16.5775 4.53683 -13.8673 28.8053 9.56028 -0.0 0.0 -0.0 3.12214 22.6976 6.98661 -20.219 -20.3646 60.9146 1.06494 -27.8128 0.26368 -25.2583 -1.53654 2.81404 -0.228474 20.1461 6.76044 -0.0 0.0 -0.0 13.4087 23.4924 -26.8998 -6.74513 15.226 -57.974 1.18635 30.441 -0.322791 66.716 2.40692 7.69129 0.723136 -19.4837 -12.271 0.0 0.0 0.0 12.341 22.1059 -3.01882 -50.6292 -1.2774 7.4161 17.4082 -7.79434 -2.49054 -4.9695 0.0 0.0 -0.0 0.0 -0.0 2.62611 13.8128 2.76801 6.80924 0.339657 0.988711 23.349 27.9585 3.81522 -16.05 0.0 0.0 0.0 0.0 0.0 
2124.72 722.208 -1488.38 -4.74148 74.2837 0.401642 0.39866 0.209487 0.49531 0.398779 0.177545 0.507636 0.400436 0.0706185 0.533131 0.400072 0.153929 0.515288 -12.8909 16.0849 4.81419 -13.3498 27.6233 9.53025 -0.0 0.0 -0.0 3.01728 22.8189 6.84213 -19.7874 -18.2892 61.4532 1.02274 -26.8677 0.244296 -24.5902 -1.48046 2.74934 -0.160436 20.7743 7.40945 -0.0 0.0 -0.0 13.6277 22.9175 -27.4687 -6.36771 13.9646 -57.2537 1.31635 33.106 -0.391262 68.4055 2.57661 7.82613 1.75012 -14.5066 -17.1069 0.0 0.0 0.0 13.0876 22.1371 -3.4556 -48.4293 -1.08814 7.13519 15.5804 -7.27746 -2.24236 -6.0588 0.0 0.0 -0.0 0.0 -0.0 1.41691 13.4851 2.81325 6.34704 0.312896 0.922912 26.6898 26.6729 4.20503 -16.7288 0.0 0.0 0.0 0.0 0.0 
2113.72 722.262 -1490.06 -4.08625 75.0911 -0.0150225 0.366935 0.109782 0.527208 0.367086 0.0760121 0.533125 0.367866 -0.0342861 0.537424 0.367467 0.0510191 0.536094 -14.1984 14.6182 5.0026 -14.6371 24.9098 9.52639 -0.0 0.0 -0.0 3.06944 22.1301 6.90039 -20.6013 -17.8067 61.5829 0.835783 -22.4905 0.166178 -23.5165 -1.39193 2.64402 -0.15523 22.0085 7.91268 -0.0 0.0 -0.0 13.508 22.9166 -27.1884 -5.40844 14.3841 -57.9159 1.42413 35.1998 -0.451778 69.5574 2.69457 7.91518 2.70333 -10.5245 -22.2361 0.0 0.0 0.0 14.3723 23.8789 -5.3986 -46.0944 -0.899284 6.82944 14.7051 -6.99813 -2.12183 -6.07897 0.0 0.0 -0.0 0.0 -0.0 0.494076 14.8474 2.8278 5.86201 0.285386 0.853638 29.6966 25.7123 4.5355 -17.9256 0.0 0.0 0.0 0.0 0.0 
2105.78 726.687 -1496.02 -3.22415 74.9668 -0.492759 0.50839 0.46156 0.539566 0.508451 0.426291 0.567842 0.512805 0.303202 0.642055 0.512454 0.400796 0.586115 -14.3689 13.9343 5.87877 -14.7111 23.0996 10.1307 -0.0 0.0 -0.0 3.16961 22.0795 7.04168 -20.9523 -18.5153 60.4884 0.667509 -18.2973 0.1075 -21.5503 -1.23503 2.44697 0.0367961 22.5653 9.25042 -0.0 0.0 -0.0 13.6436 22.8708 -27.5105 -4.59704 14.1753 -57.9318 1.47801 36.2079 -0.483226 73.4504 3.10604 8.19833 3.21797 -6.56701 -24.5393 0.0 0.0 0.0 17.3155 21.9708 -6.76966 -35.8538 -0.224273 5.40914 18.3891 3.77456 -2.53373 -6.09971 0.0 0.0 -0.0 0.0 -0.0 -0.594515 13.1435 1.57122 6.42077 0.31713 0.933423 30.95 22.5231 4.53716 -19.544 0.0 0.0 0.0 0.0 0.0 
2094.99 729.563 -1497.67 -4.66336 75.2663 1.51341 0.60417 0.535606 0.608738 0.604239 0.495786 0.641585 0.609951 0.357665 0.727673 0.609518 0.468096 0.662058 -15.9376 12.8389 6.50663 -16.2464 20.8816 10.644 -0.0 0.0 -0.0 3.16667 24.0853 7.07228 -21.5992 -19.9408 59.668 0.563756 -15.6035 0.0772432 -21.4797 -1.22952 2.43979 -0.162235 24.3593 8.75868 -0.0 0.0 -0.0 13.4229 22.7674 -27.0036 -3.33899 14.0296 -58.6132 1.51189 36.8288 -0.503386 76.0107 3.38675 8.36909 3.53319 -4.80617 -26.2103 0.0 0.0 0.0 18.8513 20.3443 -6.85309 -30.7428 0.0148975 4.66171 16.466 7.4737 -2.28338 -7.61587 0.0 0.0 -0.0 0.0 -0.0 -0.658224 11.3013 0.8286 5.53986 0.267441 0.807502 32.8805 21.5816 4.71311 -17.7299 0.0 0.0 0.0 0.0 0.0 
2081.66 728.0 -1499.15 -3.96926 75.347 1.03179 0.649098 0.635377 0.564938 0.649077 0.598141 0.604223 0.655535 0.465993 0.71113 0.655287 0.572453 0.628614 -16.3701 11.9225 6.75195 -16.6103 19.0476 10.6078 -0.0 0.0 -0.0 3.00908 24.9047 6.87298 -23.4792 -20.6753 58.8388 0.467508 -13.0394 0.0534291 -20.5369 -1.15683 2.34335 -0.181342 24.5202 8.70901 -0.0 0.0 -0.0 13.3925 22.7089 -26.9379 -2.43132 13.8185 -59.1724 1.56928 37.8578 -0.538198 78.793 3.7001 8.54027 3.70353 -2.08674 -26.447 0.0 0.0 0.0 19.8224 17.352 -7.15114 -26.8365 0.152177 4.07804 17.3571 11.9585 -2.40564 -7.67391 0.0 0.0 -0.0 0.0 -0.0 -1.39963 10.7451 0.483469 4.8996 0.232547 0.715519 36.8596 18.6484 5.0047 -16.3308 0.0 0.0 0.0 0.0 0.0 
2064.99 724.391 -1500.24 -4.62496 75.7541 1.95196 0.855151 0.73972 0.641894 0.85511 0.697376 0.687663 0.863666 0.549611 0.810641 0.863377 0.670735 0.713671 -16.5937 11.2753 6.73127 -16.7952 17.8488 10.3842 -0.0 0.0 -0.0 2.61449 25.6475 6.36711 -25.2898 -21.042 58.2432 0.418378 -11.7091 0.0428999 -19.8072 -1.10167 2.2679 -0.187764 24.5241 8.67359 -0.0 0.0 -0.0 13.3863 22.6792 -26.9264 -1.00793 13.848 -59.9898 1.63755 39.0456 -0.580654 80.9723 3.9511 8.66362 3.74288 -0.438014 -26.0873 0.0 0.0 0.0 21.2274 14.7319 -7.37941 -24.0731 0.225094 3.66025 17.6853 14.6366 -2.45973 -7.75865 0.0 0.0 -0.0 0.0 -0.0 -2.30759 9.42147 0.617624 3.9361 0.181986 0.576392 37.816 15.5685 4.98613 -15.7878 0.0 0.0 0.0 0.0 0.0 
2056.68 722.969 -1497.81 -5.67032 76.1431 3.17009 1.0405 0.759339 0.537343 1.04037 0.723608 0.584573 1.04789 0.597766 0.712748 1.04787 0.702828 0.6094 -12.5031 11.5602 5.21893 -12.6368 18.6681 8.37273 -0.0 0.0 -0.0 1.72357 24.5056 5.13548 -27.0303 -20.5629 59.7901 0.555796 -15.3937 0.0751161 -18.4279 -1.00007 2.12342 -0.0659607 24.0007 9.18087 -0.0 0.0 -0.0 13.3067 22.8296 -26.7262 0.760489 13.2206 -59.8122 1.63016 38.919 -0.576008 82.3623 4.11357 8.73728 3.51343 0.875448 -23.855 0.0 0.0 0.0 21.5842 12.2777 -7.03407 -20.7162 0.286438 3.14886 13.2385 13.0963 -1.86806 -9.49683 0.0 0.0 -0.0 0.0 -0.0 -2.52823 7.13774 0.215835 3.78884 0.174464 0.555055 37.3173 12.5174 4.84852 -15.9731 0.0 0.0 0.0 0.0 0.0 
2043.63 725.665 -1494.34 -8.18659 77.0073 6.06725 1.18925 0.466799 0.555233 1.18932 0.430522 0.58381 1.19381 0.311938 0.654886 1.19344 0.411448 0.597406 -11.7032 11.3023 4.1272 -11.8387 18.7582 7.12986 -0.0 0.0 -0.0 1.84291 24.0634 5.27188 -27.6134 -18.0719 60.9498 0.519606 -14.4347 0.0658017 -17.9327 -0.964443 2.07096 0.0256758 23.7446 9.61808 -0.0 0.0 -0.0 13.2651 22.9118 -26.6214 1.80623 12.8598 -60.2938 1.66474 39.5079 -0.597869 83.3238 4.22697 8.78592 3.40556 0.873386 -23.0663 0.0 0.0 0.0 21.0105 10.8591 -6.41994 -12.6335 0.310668 1.90999 10.2505 15.395 -1.46837 -10.5482 0.0 0.0 -0.0 0.0 -0.0 -2.80419 7.25678 -0.119883 3.31885 0.150829 0.486832 36.9105 9.3925 4.73475 -16.118 0.0 0.0 0.0 0.0 0.0 
2023.51 722.266 -1492.45 -7.17653 77.6322 4.98493 1.17416 0.458732 0.529273 1.17421 0.424124 0.55739 1.17844 0.310499 0.627817 1.17812 0.405753 0.570902 -9.72231 11.8441 2.84103 -9.82885 20.3659 5.70824 -0.0 0.0 -0.0 0.601183 24.2819 3.61149 -27.925 -16.5668 62.9721 0.660317 -18.1131 0.105253 -18.0762 -0.974722 2.08619 0.254222 22.9996 10.6858 -0.0 0.0 -0.0 13.1545 23.2899 -26.3274 2.55595 12.5648 -60.2722 1.69054 39.941 -0.614361 83.6613 4.26696 8.80254 3.2093 0.561123 -21.7683 0.0 0.0 0.0 22.7564 9.52266 -6.71 -5.99058 0.199887 0.897232 7.94537 13.937 -1.14324 -13.1473 0.0 0.0 -0.0 0.0 -0.0 -5.09567 7.06607 0.254525 2.30668 0.101839 0.339278 39.0969 5.10921 4.85467 -15.4829 0.0 0.0 0.0 0.0 0.0 
2012.76 720.912 -1489.0 -8.60282 77.9989 6.90981 1.13062 0.259732 0.633658 1.13082 0.218886 0.6489 1.13338 0.0910657 0.67874 1.13279 0.197115 0.655841 -9.81896 11.6924 2.56048 -9.9325 20.2818 5.41496 -0.0 0.0 -0.0 -0.17537 24.0014 2.53597 -28.4069 -15.5785 65.1016 0.741377 -20.1661 0.131835 -16.9866 -0.897659 1.9699 0.435413 21.4899 11.2275 -0.0 0.0 -0.0 13.0216 23.5966 -25.9882 3.48749 12.5437 -60.711 1.85545 42.583 -0.723147 85.2334 4.45449 8.87683 3.05795 -0.0523069 -20.9256 0.0 0.0 0.0 23.0044 8.32415 -7.37115 0.0641638 -0.00264753 -0.00949056 3.85725 10.2882 -0.55924 -15.2745 0.0 0.0 -0.0 0.0 -0.0 -5.32108 6.9095 -0.0547588 2.02816 0.0888164 0.298528 38.2767 5.37267 4.78575 -15.8219 0.0 0.0 0.0 0.0 0.0 
2003.09 716.257 -1486.75 -11.1283 78.1614 9.83795 1.15047 0.0866041 0.507686 1.15061 0.0541236 0.512168 1.15113 -0.0444323 0.513099 1.15076 0.0371587 0.513677 -8.13766 12.0134 1.59901 -8.19213 21.3359 4.25499 -0.0 0.0 -0.0 -0.703954 24.1948 1.84651 -29.1967 -15.0082 66.1777 0.871817 -23.3579 0.180214 -16.3185 -0.851509 1.89789 0.646647 20.6779 12.2173 -0.0 0.0 -0.0 13.0551 23.7757 -26.0481 5.75128 12.4983 -60.3094 1.94907 43.99 -0.787342 85.4656 4.48236 8.88737 2.92925 -0.627792 -20.2341 0.0 0.0 0.0 24.5738 7.36656 -8.05467 1.53455 -0.0662264 -0.226158 3.67829 10.3455 -0.533576 -16.6487 0.0 0.0 -0.0 0.0 -0.0 -5.47387 5.81023 -0.213495 1.83018 0.0796809 0.269524 36.3685 0.814249 4.55604 -15.8959 0.0 0.0 0.0 0.0 0.0 
1990.56 716.123 -1485.82 -13.7064 78.556 12.3713 1.19566 0.181259 0.584251 1.19584 0.143715 0.5946 1.19739 0.028313 0.611065 1.19689 0.124462 0.598926 -7.85394 11.417 1.98732 -7.88555 19.9101 4.45266 -0.0 0.0 -0.0 -0.996944 23.8997 1.41131 -29.7398 -14.8959 67.2523 0.941602 -25.0059 0.208804 -15.3743 -0.78773 1.79521 1.21873 16.9329 14.4906 -0.0 0.0 -0.0 13.0362 23.9977 -25.9816 6.494 12.7585 -60.182 1.96233 44.184 -0.796565 85.213 4.45204 8.87591 2.36566 -5.0517 -17.9619 0.0 0.0 0.0 25.3869 6.26892 -8.46477 3.32574 -0.151172 -0.487833 0.730821 3.18058 -0.107203 -16.8696 0.0 0.0 -0.0 0.0 -0.0 -5.78212 9.24916 -0.00424904 0.0442295 0.00182372 0.0065424 38.5712 4.71242 4.80225 -17.3371 0.0 0.0 0.0 0.0 0.0 
1978.81 708.155 -1485.16 -15.0226 78.4456 13.7419 1.33323 0.337548 0.739568 1.33349 0.289805 0.759547 1.33744 0.142432 0.80038 1.33664 0.267046 0.767844 -7.38827 11.7025 1.58419 -7.40459 20.6707 4.03767 -0.0 0.0 -0.0 -1.08783 23.7285 1.26401 -30.1466 -14.2353 67.1038 0.926399 -24.6506 0.20242 -15.7746 -0.81456 1.83886 1.16625 16.6632 14.0667 -0.0 0.0 -0.0 13.1096 24.3434 -26.1159 7.55973 12.9069 -60.2684 2.1013 46.143 -0.895129 84.9298 4.41812 8.86289 2.39483 -4.82642 -18.0806 0.0 0.0 0.0 27.0384 5.10128 -8.91734 6.19419 -0.304164 -0.901107 -1.95191 1.71966 0.288931 -18.3349 0.0 0.0 -0.0 0.0 -0.0 -5.95801 6.46241 -0.47219 -0.833144 -0.033408 -0.12349 39.5875 6.42182 4.91881 -17.5853 0.0 0.0 0.0 0.0 0.0 
